# xmcd
#
# Track frame offsets:
#	150
#	13083
#	23884
#	33235
#	44681
#	56576
#	71279
#	84527
#	95192
#	105135
#	114282
#	124702
#	141052
#	152177
#	164100
#	174923
#	184620
#	193850
#	204343
#	220598
#	235856
#	253106
#
# Disc length: 3590 seconds
#
# Revision: 1
# Processed by: cddbd v1.5.2PL0 Copyright (c) Steve Scherf et al.
# Submitted via: audiograbber 1.81.03
#
DISCID=2b0e0416
DTITLE=The Ventures - The Best Of Guitar Surf
DYEAR=1900
DGENRE=Surf
TTITLE0=Vibrations
TTITLE1=Surf Rider
TTITLE2=Sleep Walk
TTITLE3=Night Train
TTITLE4=Michelle
TTITLE5=The Sounds Of Silence
TTITLE6=House Of Rising Sun
TTITLE7=Walk, Don't Run '64
TTITLE8=Blue Moon
TTITLE9=Rap City
TTITLE10=Pipeline
TTITLE11=Let It Be
TTITLE12=Strangers In The Bight
TTITLE13=Eleanor Rigby
TTITLE14=Windy And Warm
TTITLE15=Caravan
TTITLE16=Diamod Head
TTITLE17=Raindrops Keep Falling on My Head
TTITLE18=Bridge Over Troubled Water
TTITLE19=My Love
TTITLE20=Those Were The Days
TTITLE21=Hey Jude
EXTD=
EXTT0=
EXTT1=
EXTT2=
EXTT3=
EXTT4=
EXTT5=
EXTT6=
EXTT7=
EXTT8=
EXTT9=
EXTT10=
EXTT11=
EXTT12=
EXTT13=
EXTT14=
EXTT15=
EXTT16=
EXTT17=
EXTT18=
EXTT19=
EXTT20=
EXTT21=
PLAYORDER=
